<?xml version="1.0" standalone="no"?>
<!DOCTYPE svg PUBLIC "-//W3C//DTD SVG 20010904//EN"
 "http://www.w3.org/TR/2001/REC-SVG-20010904/DTD/svg10.dtd">
<svg version="1.0" xmlns="http://www.w3.org/2000/svg"
 width="41.000000pt" height="44.000000pt" viewBox="0 0 41.000000 44.000000"
 preserveAspectRatio="xMidYMid meet">

<g transform="translate(0.000000,44.000000) scale(0.100000,-0.100000)"
fill="#000000" stroke="none">
<path d="M215 414 c-116 -60 -150 -179 -71 -251 29 -27 44 -33 79 -33 41 0 44
2 40 24 -3 16 -14 27 -31 31 -42 10 -52 24 -52 72 0 36 6 50 29 74 32 31 84
39 123 18 16 -9 24 -7 44 12 31 29 30 35 -6 54 -38 19 -117 19 -155 -1z"/>
<path d="M258 270 c-4 -27 -2 -30 24 -30 21 0 28 -5 28 -20 0 -12 -9 -24 -22
-29 -22 -8 -22 -9 11 -29 48 -29 67 -16 81 55 6 32 13 64 15 71 3 9 -14 12
-64 12 -69 0 -69 0 -73 -30z"/>
<path d="M90 182 c0 -39 34 -93 69 -110 14 -7 45 -16 69 -19 31 -4 42 -10 38
-19 -8 -21 0 -17 54 23 55 41 55 42 -11 81 l-36 22 5 -25 c4 -23 2 -25 -38
-25 -59 0 -107 26 -130 69 l-19 36 -1 -33z"/>
</g>
</svg>
